<mxfile host="app.diagrams.net" modified="2021-07-20T03:09:34.392Z" agent="5.0 (Macintosh; Intel Mac OS X 10_13_6) AppleWebKit/537.36 (KHTML, like Gecko) Chrome/91.0.4472.164 Safari/537.36" etag="NWRbZd3-4GwGZplmQecp" version="14.8.6" type="github">
  <diagram id="3M3bJU78CoErf1pT6NRe" name="Page-1">
    <mxGraphModel dx="1426" dy="2095" grid="1" gridSize="10" guides="1" tooltips="1" connect="1" arrows="1" fold="1" page="1" pageScale="1" pageWidth="1920" pageHeight="1200" math="0" shadow="0">
      <root>
        <mxCell id="0" />
        <mxCell id="1" parent="0" />
        <mxCell id="Qe0eFCxV486tzgDlHHpQ-1" value="&lt;p&gt;&lt;font face=&quot;Comic Sans MS&quot;&gt;&lt;span style=&quot;font-size: 14px&quot;&gt;#6246ea&lt;/span&gt;&lt;/font&gt;&lt;br&gt;&lt;/p&gt;" style="rounded=0;whiteSpace=wrap;html=1;fillColor=#ff8906;strokeWidth=2;sketch=1;fillStyle=solid;fontColor=#FAFAFA;" parent="1" vertex="1">
          <mxGeometry x="680" y="-370" width="120" height="60" as="geometry" />
        </mxCell>
        <mxCell id="Qe0eFCxV486tzgDlHHpQ-2" value="&lt;p&gt;&lt;font style=&quot;font-size: 14px&quot;&gt;#6246ea&lt;/font&gt;&lt;/p&gt;" style="rounded=0;whiteSpace=wrap;html=1;fillColor=#6246ea;strokeWidth=2;sketch=1;fillStyle=solid;shadow=0;fontFamily=Comic Sans MS;fontColor=#FAFAFA;" parent="1" vertex="1">
          <mxGeometry x="840" y="-370" width="120" height="60" as="geometry" />
        </mxCell>
        <mxCell id="Qe0eFCxV486tzgDlHHpQ-3" value="&lt;p&gt;&lt;font face=&quot;Comic Sans MS&quot;&gt;&lt;span style=&quot;font-size: 14px&quot;&gt;#004643&lt;/span&gt;&lt;/font&gt;&lt;br&gt;&lt;/p&gt;" style="rounded=0;whiteSpace=wrap;html=1;strokeWidth=2;sketch=1;fillStyle=solid;fontColor=#FAFAFA;fillColor=#004643;" parent="1" vertex="1">
          <mxGeometry x="490" y="-370" width="120" height="60" as="geometry" />
        </mxCell>
        <mxCell id="Qe0eFCxV486tzgDlHHpQ-8" style="rounded=0;orthogonalLoop=1;jettySize=auto;html=1;fontFamily=Comic Sans MS;fontColor=#FAFAFA;strokeWidth=3;sketch=0;endArrow=none;endFill=0;targetPerimeterSpacing=10;sourcePerimeterSpacing=10;" parent="1" source="Qe0eFCxV486tzgDlHHpQ-4" target="Qe0eFCxV486tzgDlHHpQ-7" edge="1">
          <mxGeometry relative="1" as="geometry" />
        </mxCell>
        <mxCell id="Qe0eFCxV486tzgDlHHpQ-4" value="&lt;p&gt;&lt;font face=&quot;Comic Sans MS&quot;&gt;&lt;span style=&quot;font-size: 14px&quot;&gt;#d9376e&lt;/span&gt;&lt;/font&gt;&lt;br&gt;&lt;/p&gt;" style="rounded=0;whiteSpace=wrap;html=1;strokeWidth=3;sketch=1;fillStyle=solid;fontColor=#FAFAFA;fillColor=#d9376e;" parent="1" vertex="1">
          <mxGeometry x="360" y="-660" width="160" height="60" as="geometry" />
        </mxCell>
        <mxCell id="Qe0eFCxV486tzgDlHHpQ-10" style="edgeStyle=none;rounded=0;sketch=0;orthogonalLoop=1;jettySize=auto;html=1;fontFamily=Comic Sans MS;fontColor=#FAFAFA;endArrow=none;endFill=0;sourcePerimeterSpacing=10;targetPerimeterSpacing=10;strokeWidth=3;" parent="1" source="Qe0eFCxV486tzgDlHHpQ-7" target="Qe0eFCxV486tzgDlHHpQ-9" edge="1">
          <mxGeometry relative="1" as="geometry" />
        </mxCell>
        <mxCell id="Qe0eFCxV486tzgDlHHpQ-7" value="&lt;p&gt;&lt;font face=&quot;Comic Sans MS&quot;&gt;&lt;span style=&quot;font-size: 14px&quot;&gt;#d9376e&lt;/span&gt;&lt;/font&gt;&lt;br&gt;&lt;/p&gt;" style="rounded=0;whiteSpace=wrap;html=1;strokeWidth=3;sketch=1;fillStyle=solid;fontColor=#FAFAFA;fillColor=#d9376e;shadow=0;fontFamily=Comic Sans MS;" parent="1" vertex="1">
          <mxGeometry x="360" y="-520" width="160" height="60" as="geometry" />
        </mxCell>
        <mxCell id="Qe0eFCxV486tzgDlHHpQ-12" value="" style="edgeStyle=none;rounded=0;sketch=0;orthogonalLoop=1;jettySize=auto;html=1;fontFamily=Comic Sans MS;fontColor=#FAFAFA;endArrow=none;endFill=0;sourcePerimeterSpacing=10;targetPerimeterSpacing=10;strokeWidth=3;" parent="1" source="Qe0eFCxV486tzgDlHHpQ-9" target="Qe0eFCxV486tzgDlHHpQ-11" edge="1">
          <mxGeometry relative="1" as="geometry" />
        </mxCell>
        <mxCell id="Qe0eFCxV486tzgDlHHpQ-9" value="&lt;p&gt;&lt;font face=&quot;Comic Sans MS&quot;&gt;&lt;span style=&quot;font-size: 14px&quot;&gt;#d9376e&lt;/span&gt;&lt;/font&gt;&lt;br&gt;&lt;/p&gt;" style="rounded=0;whiteSpace=wrap;html=1;strokeWidth=3;sketch=1;fillStyle=solid;fontColor=#FAFAFA;fillColor=#d9376e;shadow=0;fontFamily=Comic Sans MS;" parent="1" vertex="1">
          <mxGeometry x="600" y="-520" width="160" height="60" as="geometry" />
        </mxCell>
        <mxCell id="Qe0eFCxV486tzgDlHHpQ-13" style="edgeStyle=elbowEdgeStyle;rounded=0;sketch=0;orthogonalLoop=1;jettySize=auto;html=1;entryX=1;entryY=0.5;entryDx=0;entryDy=0;fontFamily=Comic Sans MS;fontColor=#FAFAFA;endArrow=none;endFill=0;sourcePerimeterSpacing=10;targetPerimeterSpacing=10;strokeWidth=3;elbow=vertical;" parent="1" source="Qe0eFCxV486tzgDlHHpQ-11" target="Qe0eFCxV486tzgDlHHpQ-4" edge="1">
          <mxGeometry relative="1" as="geometry">
            <Array as="points">
              <mxPoint x="830" y="-630" />
              <mxPoint x="920" y="-570" />
              <mxPoint x="870" y="-620" />
              <mxPoint x="720" y="-630" />
            </Array>
          </mxGeometry>
        </mxCell>
        <mxCell id="Qe0eFCxV486tzgDlHHpQ-11" value="&lt;p&gt;&lt;font face=&quot;Comic Sans MS&quot;&gt;&lt;span style=&quot;font-size: 14px&quot;&gt;#d9376e&lt;/span&gt;&lt;/font&gt;&lt;br&gt;&lt;/p&gt;" style="rounded=0;whiteSpace=wrap;html=1;strokeWidth=3;sketch=1;fillStyle=solid;fontColor=#FAFAFA;fillColor=#d9376e;shadow=0;fontFamily=Comic Sans MS;" parent="1" vertex="1">
          <mxGeometry x="840" y="-520" width="160" height="60" as="geometry" />
        </mxCell>
      </root>
    </mxGraphModel>
  </diagram>
</mxfile>
